<svg width="41" height="38" viewBox="0 0 41 38" fill="none" xmlns="http://www.w3.org/2000/svg">
<path d="M20.4945 12.664C16.7303 12.664 13.6584 15.5111 13.6584 19C13.6584 22.4889 16.7303 25.336 20.4945 25.336C24.2587 25.336 27.3306 22.4889 27.3306 19C27.3306 15.5111 24.2587 12.664 20.4945 12.664ZM40.9977 19C40.9977 16.3762 41.0234 13.7762 40.8644 11.1572C40.7054 8.11515 39.9567 5.41532 37.5566 3.19082C35.1514 0.961562 32.2436 0.272347 28.9614 0.124997C26.1306 -0.0223523 23.3253 0.00141382 20.4996 0.00141382C17.6688 0.00141382 14.8635 -0.0223523 12.0378 0.124997C8.75565 0.272347 5.84274 0.966315 3.44266 3.19082C1.03746 5.42007 0.293842 8.11515 0.134863 11.1572C-0.0241165 13.781 0.0015254 16.381 0.0015254 19C0.0015254 21.619 -0.0241165 24.2238 0.134863 26.8428C0.293842 29.8849 1.04258 32.5847 3.44266 34.8092C5.84787 37.0384 8.75565 37.7276 12.0378 37.875C14.8687 38.0224 17.6739 37.9986 20.4996 37.9986C23.3305 37.9986 26.1357 38.0224 28.9614 37.875C32.2436 37.7276 35.1565 37.0337 37.5566 34.8092C39.9618 32.5799 40.7054 29.8849 40.8644 26.8428C41.0285 24.2238 40.9977 21.6238 40.9977 19ZM20.4945 28.7488C14.6738 28.7488 9.9762 24.3949 9.9762 19C9.9762 13.6051 14.6738 9.25116 20.4945 9.25116C26.3152 9.25116 31.0128 13.6051 31.0128 19C31.0128 24.3949 26.3152 28.7488 20.4945 28.7488ZM31.4436 11.1287C30.0845 11.1287 28.9871 10.1115 28.9871 8.85189C28.9871 7.59229 30.0845 6.57511 31.4436 6.57511C32.8026 6.57511 33.9 7.59229 33.9 8.85189C33.9005 9.15099 33.8372 9.44722 33.7139 9.72363C33.5906 10 33.4096 10.2512 33.1815 10.4627C32.9533 10.6742 32.6823 10.8418 32.3841 10.9561C32.0859 11.0704 31.7663 11.1291 31.4436 11.1287Z" fill="#5A4742"/>
</svg>
